<?xml version="1.0" standalone="no"?>
<!DOCTYPE svg PUBLIC "-//W3C//DTD SVG 20010904//EN"
 "http://www.w3.org/TR/2001/REC-SVG-20010904/DTD/svg10.dtd">
<svg version="1.0" xmlns="http://www.w3.org/2000/svg"
 width="320.000000pt" height="320.000000pt" viewBox="0 0 320.000000 320.000000"
 preserveAspectRatio="xMidYMid meet">

<g transform="translate(0.000000,320.000000) scale(0.100000,-0.100000)"
fill="#000000" stroke="none">
<path d="M0 1600 l0 -1600 1600 0 1600 0 0 1600 0 1600 -1600 0 -1600 0 0
-1600z m1868 1115 c-3 -3 7 -19 23 -35 34 -33 36 -59 9 -117 -10 -24 -17 -43
-15 -43 3 0 -4 -9 -15 -20 -26 -26 -25 -37 3 -46 12 -3 34 -15 48 -25 26 -18
27 -18 44 1 10 11 24 20 32 20 18 0 17 -27 -3 -34 -10 -4 -13 -2 -8 6 4 7 3 8
-4 4 -17 -10 -15 -23 7 -45 19 -19 19 -18 40 36 28 74 28 118 -1 128 -19 6
-20 8 -6 12 9 2 27 -1 39 -7 19 -11 21 -18 16 -60 -3 -26 -17 -76 -31 -111
l-26 -64 44 48 c42 44 66 62 50 35 -4 -7 8 -1 27 12 47 34 59 46 51 55 -4 5
-1 5 6 1 16 -9 74 32 66 46 -4 7 -2 8 5 4 6 -4 19 -2 27 5 12 10 12 14 2 22
-9 6 -8 7 5 3 12 -4 38 8 74 34 54 38 93 51 93 30 0 -5 -19 -23 -42 -39 -24
-17 -57 -43 -75 -58 -18 -15 -53 -43 -78 -62 -24 -18 -43 -36 -40 -40 2 -4 -2
-8 -9 -8 -8 0 -52 -30 -99 -67 -83 -66 -109 -102 -84 -118 18 -11 59 -10 52 2
-4 6 1 7 11 3 13 -5 15 -3 9 7 -5 9 -4 11 3 6 14 -8 145 68 134 78 -3 4 1 4
11 0 23 -8 22 -21 -3 -34 -11 -6 -17 -16 -14 -22 4 -7 3 -8 -4 -4 -14 8 -94
-43 -86 -55 3 -5 -3 -6 -12 -2 -12 4 -15 2 -12 -8 3 -8 12 -13 21 -13 9 1 14
-2 11 -7 -7 -13 20 -11 50 2 14 7 23 16 19 22 -3 6 -2 7 4 4 5 -3 28 5 51 18
47 27 57 18 15 -14 l-28 -20 40 14 c22 8 46 14 53 15 21 0 55 -37 49 -54 -6
-16 -37 -11 -37 6 0 5 5 6 12 2 7 -5 8 -3 3 6 -10 16 -92 7 -137 -16 -32 -17
-33 -17 -10 -27 18 -8 29 -6 53 12 40 29 47 22 9 -9 l-29 -24 47 -40 c25 -23
50 -41 55 -41 6 0 11 -8 13 -18 1 -11 5 -21 8 -24 11 -11 146 -6 161 7 13 11
20 11 40 0 14 -7 25 -17 25 -22 0 -5 -9 -4 -19 2 -26 13 -44 13 -35 -2 4 -6 3
-8 -3 -5 -13 8 -33 -58 -33 -109 -1 -49 -38 -141 -78 -192 -17 -22 -28 -43
-24 -47 4 -5 1 -5 -6 -1 -16 9 -44 -12 -35 -27 3 -6 1 -7 -5 -3 -6 3 -28 -3
-49 -14 -21 -11 -43 -20 -49 -20 -7 0 -12 -17 -12 -40 -1 -38 1 -40 36 -46 37
-7 199 8 297 28 38 7 52 15 51 27 -1 12 6 15 29 12 89 -10 42 -57 -82 -81 -32
-6 -125 -17 -207 -23 -136 -11 -150 -14 -163 -34 -19 -28 -21 -27 112 -42 139
-16 279 -13 418 7 65 10 120 15 123 11 13 -21 -230 -89 -322 -89 -34 0 -43 -4
-52 -25 -18 -39 -54 -36 -246 22 -19 6 -19 5 -3 -18 19 -26 23 -84 7 -94 -6
-4 -10 5 -10 20 0 14 -6 41 -14 60 -8 18 -11 36 -8 40 4 4 3 6 -3 4 -5 -1 -18
1 -28 5 -21 10 -67 -1 -67 -15 0 -16 143 -178 152 -173 4 3 5 -1 2 -9 -3 -8
-1 -18 5 -22 13 -8 15 -35 2 -35 -5 0 -48 40 -97 89 -49 49 -93 87 -98 84 -5
-3 -6 -2 -3 3 3 6 2 16 -3 23 -6 11 -12 7 -23 -15 -9 -16 -28 -42 -42 -57 -15
-16 -25 -30 -24 -31 13 -11 73 -25 83 -19 6 3 8 3 4 -2 -4 -4 2 -19 13 -33 32
-41 19 -146 -14 -113 -8 8 -8 11 2 11 8 0 11 12 9 38 -2 22 -8 36 -15 35 -7
-2 -10 3 -7 10 3 9 -10 20 -33 31 -32 14 -44 15 -68 5 -26 -11 -27 -13 -10
-17 30 -6 43 -22 18 -22 -21 0 -21 -1 -7 -35 7 -19 14 -53 14 -76 0 -41 -26
-99 -45 -99 -5 0 -3 -5 5 -11 12 -9 12 -10 -3 -5 -11 3 -24 3 -30 -1 -5 -3
-38 -5 -72 -4 l-61 2 -1 -83 c-2 -80 -27 -181 -54 -214 -6 -7 -7 -19 -3 -26 4
-7 4 -10 -1 -6 -4 4 -21 -2 -36 -13 -30 -21 -41 -11 -14 11 9 7 14 19 11 26
-3 8 0 13 6 11 7 -1 22 23 35 53 19 47 22 70 20 154 l-2 98 -50 19 c-41 16
-55 17 -82 7 -41 -15 -104 3 -131 37 l-19 24 -57 -79 c-31 -43 -56 -89 -56
-103 0 -25 -23 -173 -41 -267 -15 -80 -56 -160 -80 -160 -19 0 -19 1 -5 16 24
23 33 43 51 114 19 72 47 261 41 268 -9 9 -27 -11 -22 -24 3 -9 0 -11 -11 -7
-13 5 -15 2 -10 -11 4 -9 3 -15 -2 -12 -13 8 -54 -41 -46 -55 5 -7 4 -10 -2
-6 -12 8 -90 -82 -85 -98 2 -5 0 -7 -3 -3 -4 4 -28 -9 -53 -28 -26 -19 -48
-31 -50 -25 -5 16 -3 26 6 26 16 0 112 107 106 117 -4 7 -2 8 5 4 14 -9 93 73
84 87 -3 6 -1 7 4 4 16 -10 71 103 87 177 16 79 14 78 -71 -27 -32 -40 -72
-88 -89 -107 -65 -72 -83 -97 -76 -105 4 -5 2 -5 -4 -2 -10 6 -59 -36 -59 -51
0 -4 -4 -6 -9 -4 -5 2 -21 -8 -35 -21 -14 -14 -36 -28 -49 -32 -14 -4 -20 -11
-15 -18 4 -7 -4 -5 -17 4 -27 18 -28 44 -4 92 8 15 12 33 8 39 -4 6 -3 8 3 5
6 -4 20 8 31 25 17 26 22 29 27 16 5 -13 -16 -75 -43 -123 -9 -16 38 24 120
104 42 41 74 79 71 84 -3 6 -1 7 4 4 6 -4 35 21 65 56 53 62 129 159 114 145
-5 -4 -17 -3 -27 2 -16 9 -20 4 -30 -32 -6 -24 -11 -44 -10 -45 0 -1 -15 -19
-34 -40 -19 -21 -35 -41 -35 -45 0 -5 -7 -8 -15 -8 -18 0 -18 -1 0 44 8 20 20
36 25 36 5 0 15 10 21 23 8 14 -5 7 -37 -22 -61 -56 -61 -56 -47 -48 12 8 12
-17 -1 -30 -4 -4 -6 -1 -4 7 2 10 -6 16 -25 18 -23 3 -28 8 -25 25 2 15 10 22
25 22 13 0 46 25 82 60 54 53 59 61 45 72 -18 13 -38 8 -29 -8 3 -5 0 -6 -8
-3 -8 3 -25 -5 -37 -18 -13 -13 -20 -18 -16 -11 7 13 -47 29 -64 18 -5 -3 -10
-1 -10 5 0 22 -43 28 -75 9 -37 -23 -83 -24 -113 -3 -45 31 -68 114 -40 142
10 10 10 15 -2 22 -8 5 -18 6 -22 4 -13 -8 -9 -72 7 -112 20 -45 70 -96 86
-86 7 4 9 3 6 -3 -9 -14 48 -34 71 -26 9 3 29 15 45 25 34 24 36 7 2 -20 -13
-11 -22 -22 -19 -24 12 -13 -85 1 -113 15 -32 17 -78 76 -101 130 -14 33 -16
139 -2 153 5 5 11 19 13 31 2 13 7 26 12 30 4 5 5 2 0 -6 -5 -9 -3 -12 6 -9 8
3 13 11 11 17 -1 7 2 10 8 6 6 -3 10 3 10 15 0 12 -29 52 -71 96 -122 129
-130 199 -29 269 23 16 48 44 55 62 14 32 40 241 32 249 -9 9 -99 -59 -117
-88 -26 -43 -25 -45 10 -53 53 -12 93 -87 53 -102 -9 -4 -37 1 -62 11 -25 10
-59 21 -76 25 -33 7 -44 33 -25 56 7 8 20 15 30 15 11 0 23 16 35 45 13 37 27
51 66 74 27 15 46 31 42 35 -4 4 1 4 11 0 13 -5 17 -4 12 4 -5 8 -2 10 8 6 11
-4 22 10 41 53 15 32 27 70 28 84 1 19 6 25 17 21 8 -2 4 4 -10 14 -14 10 -28
18 -32 16 -5 -1 -8 2 -8 6 0 5 -18 18 -40 31 -47 26 -55 55 -12 45 15 -4 61
-22 104 -40 72 -31 77 -32 92 -15 9 10 13 21 9 25 -5 4 -3 6 2 5 12 -4 65 30
65 41 0 12 -151 101 -161 94 -5 -3 -8 0 -7 7 2 6 -3 14 -11 17 -9 3 -11 0 -6
-9 5 -8 4 -11 0 -6 -5 4 -10 17 -12 28 -3 19 0 20 24 14 16 -3 55 -17 87 -30
33 -13 64 -21 69 -18 6 3 7 1 4 -4 -4 -6 11 -22 33 -37 40 -26 60 -33 59 -18
0 11 -113 97 -122 94 -5 -1 -6 2 -3 7 7 10 -44 47 -59 43 -5 -2 -2 4 7 14 16
17 21 16 91 -19 41 -20 80 -44 87 -52 7 -8 17 -12 23 -8 6 3 7 1 3 -5 -3 -6 2
-16 12 -21 15 -8 36 -1 96 30 42 22 74 44 72 48 -3 3 3 7 12 8 9 0 51 8 92 18
56 12 110 16 217 13 l141 -3 26 51 c43 85 31 144 -29 144 -34 0 -142 -50 -191
-89 -44 -34 -43 -12 1 26 48 43 150 93 187 93 15 0 30 5 33 10 3 6 9 10 12 10
4 0 4 -2 1 -5z m-139 -158 c-2 -41 -4 -43 -33 -42 -17 1 -41 7 -54 14 -18 10
-20 15 -12 31 14 26 39 39 73 40 27 0 28 -2 26 -43z m481 -32 c0 -14 -49 -84
-73 -104 -10 -8 -17 -9 -17 -3 0 6 5 14 10 17 6 4 7 12 4 18 -4 7 -3 9 1 5 5
-5 16 4 25 20 11 17 13 29 7 34 -15 10 11 38 29 31 8 -3 14 -11 14 -18z m224
-241 c8 -3 12 -12 9 -21 -5 -13 -2 -14 18 -4 22 11 23 11 5 -3 -10 -9 -22 -13
-27 -11 -4 3 -15 -5 -23 -17 -15 -21 -15 -21 -13 9 1 18 6 28 12 25 6 -3 4 2
-4 11 -14 17 -5 22 23 11z m-44 -230 c0 -8 -19 -13 -24 -6 -3 5 1 9 9 9 8 0
15 -2 15 -3z m-199 -911 c12 -16 12 -17 -2 -6 -9 7 -20 9 -24 5 -5 -4 -5 -1
-1 6 9 16 11 15 27 -5z m-951 -427 c0 -2 -8 -10 -17 -17 -16 -13 -17 -12 -4 4
13 16 21 21 21 13z m-240 -100 c0 -2 -8 -10 -17 -17 -16 -13 -17 -12 -4 4 13
16 21 21 21 13z"/>
<path d="M1530 2401 c21 -13 164 -28 186 -20 15 5 10 9 -21 18 -48 13 -187 15
-165 2z"/>
<path d="M1820 2389 c39 -26 66 -52 97 -94 l21 -30 20 25 c22 28 19 44 -8 37
-12 -3 -16 0 -13 12 3 12 -6 20 -29 29 -18 6 -37 11 -42 11 -5 0 -12 4 -15 9
-3 6 -20 13 -36 17 l-30 7 35 -23z"/>
<path d="M1746 2373 c-3 -4 -25 -9 -49 -13 l-42 -6 46 -16 c43 -15 48 -15 65
0 16 15 17 15 6 1 -11 -14 -7 -18 28 -27 22 -5 40 -7 40 -3 0 7 -75 71 -83 71
-2 0 -7 -3 -11 -7z"/>
<path d="M1295 2341 l-40 -19 36 -1 c29 -1 38 3 42 19 3 11 4 20 4 20 -1 0
-20 -9 -42 -19z"/>
<path d="M1458 2347 c-54 -12 -60 -26 -23 -56 l26 -20 61 31 c57 28 60 31 43
44 -21 16 -39 16 -107 1z"/>
<path d="M1758 2273 c7 -3 16 -2 19 1 4 3 -2 6 -13 5 -11 0 -14 -3 -6 -6z"/>
<path d="M1380 2254 c0 -10 5 -26 10 -34 8 -11 9 -7 4 15 -8 37 -14 45 -14 19z"/>
<path d="M1260 2249 c0 -5 5 -7 10 -4 6 3 10 8 10 11 0 2 -4 4 -10 4 -5 0 -10
-5 -10 -11z"/>
<path d="M1605 2250 c-28 -7 -27 -8 13 -9 27 -1 41 3 37 9 -7 11 -7 11 -50 0z"/>
<path d="M1548 2233 c7 -3 16 -2 19 1 4 3 -2 6 -13 5 -11 0 -14 -3 -6 -6z"/>
<path d="M1645 2203 c-86 -7 -105 -13 -105 -33 0 -18 7 -20 68 -20 37 0 77 -3
90 -6 17 -5 22 -2 22 14 0 30 -11 52 -24 50 -6 -1 -29 -3 -51 -5z"/>
<path d="M1201 2178 c0 -13 4 -32 8 -43 8 -19 8 -19 19 2 19 34 15 63 -8 63
-14 0 -20 -6 -19 -22z"/>
<path d="M1798 2175 c2 -14 6 -25 7 -25 14 0 37 16 46 31 9 17 6 19 -24 19
-31 0 -34 -2 -29 -25z"/>
<path d="M1063 2165 c-30 -21 -45 -77 -31 -115 15 -44 25 -37 38 28 6 31 13
67 16 80 5 26 5 26 -23 7z"/>
<path d="M1137 2173 c-6 -10 -24 -70 -31 -105 l-6 -28 32 16 c32 15 33 17 30
70 -4 49 -13 67 -25 47z"/>
<path d="M1283 2164 c-7 -20 -4 -21 36 -14 l33 5 -31 12 c-27 10 -33 9 -38 -3z"/>
<path d="M2060 2135 c14 -8 34 -14 45 -14 15 1 13 4 -10 14 -40 19 -67 18 -35
0z"/>
<path d="M1359 2103 l-24 -26 27 19 c15 10 28 22 28 27 0 12 -5 8 -31 -20z"/>
<path d="M2180 2085 c7 -9 15 -13 17 -11 7 7 -7 26 -19 26 -6 0 -6 -6 2 -15z"/>
<path d="M937 2067 c-10 -15 -21 -37 -26 -50 -8 -21 -5 -24 35 -39 24 -8 44
-12 44 -8 0 5 -5 10 -11 12 -6 2 -14 28 -17 58 l-7 54 -18 -27z"/>
<path d="M2253 2066 c0 -8 19 -24 41 -37 37 -20 39 -21 26 -4 -18 23 -53 54
-61 55 -3 0 -6 -6 -6 -14z"/>
<path d="M1148 2018 l-23 -33 33 23 c31 23 42 42 23 42 -5 0 -20 -15 -33 -32z"/>
<path d="M2100 2035 c7 -8 16 -12 21 -9 5 3 8 2 7 -3 -3 -10 69 -83 82 -83 5
0 12 -5 16 -12 4 -7 3 -8 -4 -4 -19 12 -13 -7 12 -37 20 -25 24 -26 36 -12 11
14 10 17 -8 22 -16 4 -22 13 -22 35 0 16 -4 27 -9 24 -5 -3 -8 2 -7 11 0 10
-21 29 -54 50 -60 36 -92 44 -70 18z"/>
<path d="M1790 2026 c0 -2 7 -6 15 -10 8 -3 15 -1 15 4 0 6 -7 10 -15 10 -8 0
-15 -2 -15 -4z"/>
<path d="M1177 1974 c-22 -19 -25 -25 -13 -30 19 -7 38 4 30 18 -4 6 -2 8 4 4
13 -8 23 6 14 21 -5 7 -16 3 -35 -13z"/>
<path d="M1918 1993 c7 -3 16 -2 19 1 4 3 -2 6 -13 5 -11 0 -14 -3 -6 -6z"/>
<path d="M2308 1944 c15 -32 37 -39 25 -8 -3 9 0 19 7 24 8 5 1 9 -18 12 l-30
4 16 -32z"/>
<path d="M880 1929 c0 -37 1 -39 16 -24 9 9 28 24 42 33 l25 16 -24 7 c-53 15
-59 12 -59 -32z"/>
<path d="M2427 1944 c-9 -10 4 -34 16 -27 6 3 7 1 3 -5 -4 -7 -1 -21 7 -32 13
-19 14 -19 36 11 29 39 21 59 -22 59 -19 0 -36 -3 -40 -6z"/>
<path d="M2100 1923 c-1 -10 -3 -48 -6 -85 l-6 -67 40 -20 40 -20 6 22 c11 40
6 80 -14 121 -23 48 -60 77 -60 49z"/>
<path d="M2018 1909 c-3 -8 3 -30 13 -49 l18 -35 1 31 c0 36 -24 75 -32 53z"/>
<path d="M2345 1900 c-3 -5 -2 -10 4 -10 5 0 13 5 16 10 3 6 2 10 -4 10 -5 0
-13 -4 -16 -10z"/>
<path d="M2510 1895 c-6 -8 -9 -19 -6 -24 4 -5 1 -13 -5 -17 -8 -5 -9 -3 -4 6
5 8 4 11 -2 7 -6 -4 -13 -29 -17 -56 -13 -101 -50 -150 -140 -187 -25 -11 -46
-25 -46 -33 0 -18 18 -10 90 39 72 49 101 92 124 185 10 39 20 76 22 83 5 16
-1 15 -16 -3z"/>
<path d="M2361 1864 c-20 -25 -30 -94 -13 -94 4 0 22 9 40 20 27 17 32 17 32
4 0 -8 -20 -24 -46 -35 -32 -14 -44 -25 -40 -35 3 -8 2 -13 -3 -10 -9 6 -35
-44 -27 -52 7 -6 89 42 105 62 7 8 9 21 5 27 -4 8 -3 9 4 5 18 -11 15 41 -4
91 -9 24 -20 43 -25 43 -4 0 -17 -12 -28 -26z"/>
<path d="M960 1838 c-22 -37 -42 -120 -34 -143 10 -26 34 -17 34 13 0 15 11
57 24 95 17 51 19 67 9 67 -7 0 -22 -14 -33 -32z"/>
<path d="M1022 1801 c-22 -69 -28 -121 -14 -121 5 0 23 31 42 69 l33 69 -20
25 -20 25 -21 -67z"/>
<path d="M1082 1768 c-13 -22 -22 -42 -20 -44 3 -2 15 14 27 37 13 22 21 42
19 44 -2 2 -14 -14 -26 -37z"/>
<path d="M2290 1790 c0 -11 2 -20 4 -20 2 0 6 9 9 20 3 11 1 20 -4 20 -5 0 -9
-9 -9 -20z"/>
<path d="M727 1780 c6 -22 41 -56 49 -47 11 11 -7 44 -30 55 -21 9 -23 8 -19
-8z"/>
<path d="M2242 1780 c0 -14 2 -19 5 -12 2 6 2 18 0 25 -3 6 -5 1 -5 -13z"/>
<path d="M2240 1708 c0 -36 4 -35 14 5 4 16 2 27 -4 27 -5 0 -10 -14 -10 -32z"/>
<path d="M2067 1713 c-10 -10 -8 -41 2 -48 5 -3 9 8 9 25 -1 33 -1 33 -11 23z"/>
<path d="M2110 1696 c0 -27 12 -45 26 -39 19 7 18 39 -2 47 -22 8 -24 8 -24
-8z"/>
<path d="M854 1564 c9 -77 17 -90 40 -65 17 18 16 21 -9 70 -14 28 -28 51 -32
51 -3 0 -3 -25 1 -56z"/>
<path d="M752 1590 c0 -14 2 -19 5 -12 2 6 2 18 0 25 -3 6 -5 1 -5 -13z"/>
<path d="M930 1597 c0 -7 7 -22 15 -33 14 -18 14 -18 15 7 0 15 -7 29 -15 33
-9 3 -15 0 -15 -7z"/>
<path d="M2185 1565 c-14 -13 -25 -29 -25 -35 0 -6 -4 -9 -9 -6 -5 3 -8 -5 -7
-19 1 -22 6 -25 37 -25 30 0 38 4 43 23 11 43 7 60 -14 54 -27 -7 -25 7 3 21
12 6 16 11 9 11 -7 1 -24 -10 -37 -24z"/>
<path d="M801 1513 c1 -52 3 -60 8 -33 5 28 8 31 14 17 4 -10 7 -30 7 -44 0
-23 38 -99 46 -91 1 2 -10 41 -27 86 -16 46 -29 94 -29 108 0 13 -4 24 -10 24
-6 0 -9 -28 -9 -67z"/>
<path d="M950 1488 c0 -3 -7 -22 -15 -42 -8 -20 -13 -36 -10 -36 8 0 36 73 30
78 -3 3 -5 3 -5 0z"/>
<path d="M947 1415 c-21 -44 -21 -59 -2 -75 13 -11 20 -9 40 10 14 13 25 31
25 39 -1 15 -33 61 -42 61 -2 0 -12 -16 -21 -35z"/>
<path d="M2040 1430 c0 -5 6 -10 14 -10 8 0 18 5 21 10 3 6 -3 10 -14 10 -12
0 -21 -4 -21 -10z"/>
<path d="M2164 1395 c3 -24 11 -25 24 -5 10 17 10 20 -7 20 -11 0 -18 -6 -17
-15z"/>
<path d="M1026 1315 c-19 -14 -19 -15 7 -15 19 0 25 4 21 15 -4 8 -7 15 -8 15
0 0 -10 -7 -20 -15z"/>
<path d="M2046 1314 c-3 -9 -6 -23 -6 -31 0 -13 3 -13 15 -3 16 13 21 50 6 50
-5 0 -12 -7 -15 -16z"/>
<path d="M1180 1265 c0 -8 7 -15 16 -15 9 0 12 5 8 12 -4 6 -3 8 2 5 6 -3 16
-2 24 4 11 6 6 9 -17 9 -23 0 -33 -5 -33 -15z"/>
<path d="M1251 1266 c0 -11 -4 -16 -8 -13 -3 4 -14 0 -24 -9 -15 -14 -16 -18
-4 -30 17 -17 23 -17 39 -1 7 7 9 24 5 42 -4 17 -7 22 -8 11z"/>
<path d="M1440 1261 c19 -11 39 -16 45 -13 5 3 -4 12 -20 18 -46 20 -64 15
-25 -5z"/>
<path d="M851 1234 c-28 -36 -27 -58 6 -75 21 -11 27 -11 31 -1 3 9 9 7 22 -8
10 -12 16 -28 14 -35 -6 -14 28 -38 40 -30 3 3 4 2 1 -2 -5 -7 25 -32 40 -33
6 0 16 10 24 21 11 19 11 21 -4 16 -9 -4 -14 -3 -11 2 8 12 -76 76 -94 73 -13
-2 -13 -1 -1 7 12 8 13 12 1 26 -9 11 -16 13 -24 5 -18 -18 -26 -11 -14 15 18
40 -4 53 -31 19z"/>
<path d="M1086 1235 c4 -8 11 -15 16 -15 6 0 5 6 -2 15 -7 8 -14 15 -16 15 -2
0 -1 -7 2 -15z"/>
<path d="M1317 1212 c-17 -19 -5 -68 14 -57 6 4 8 13 5 21 -3 8 0 13 6 11 17
-3 21 30 4 36 -8 3 -21 -2 -29 -11z"/>
<path d="M1995 1219 c-11 -17 1 -21 15 -4 8 9 8 15 2 15 -6 0 -14 -5 -17 -11z"/>
<path d="M952 1209 c5 -16 100 -90 107 -84 7 8 -21 35 -67 67 -25 17 -43 24
-40 17z"/>
<path d="M1727 1204 c-9 -9 12 -34 28 -34 7 0 26 7 41 15 l29 15 -32 0 c-17 0
-38 2 -45 5 -8 3 -17 3 -21 -1z"/>
<path d="M1381 1164 c0 -11 3 -14 6 -6 3 7 2 16 -1 19 -3 4 -6 -2 -5 -13z"/>
<path d="M1452 1155 c-16 -35 -16 -35 13 -35 23 0 30 10 26 33 -1 5 3 6 8 3 5
-4 12 -2 15 3 3 5 -4 11 -17 15 -32 8 -33 8 -45 -19z"/>
<path d="M1848 1173 c7 -3 16 -2 19 1 4 3 -2 6 -13 5 -11 0 -14 -3 -6 -6z"/>
<path d="M1956 1161 c-12 -5 -15 -10 -9 -14 6 -4 16 0 23 8 14 17 13 17 -14 6z"/>
<path d="M1111 1139 c11 -22 29 -25 29 -5 0 7 -9 16 -20 19 -17 4 -18 2 -9
-14z"/>
<path d="M1519 1134 c-11 -14 -9 -15 16 -12 16 1 30 9 33 16 6 18 -33 15 -49
-4z"/>
<path d="M856 1123 c-21 -21 13 -105 50 -122 34 -15 57 -14 48 2 -6 9 -5 9 7
0 11 -9 18 -8 32 1 21 16 22 26 3 26 -7 0 -19 7 -26 15 -7 9 -15 13 -18 10 -3
-3 -11 4 -19 15 -18 26 -69 61 -77 53z"/>
<path d="M1157 1115 c-4 -8 -2 -17 4 -20 13 -9 49 4 49 17 0 5 -7 7 -16 4 -8
-3 -12 -2 -9 4 3 6 0 10 -8 10 -8 0 -17 -7 -20 -15z"/>
<path d="M1655 1086 c-53 -16 -57 -39 -8 -54 21 -6 47 -12 58 -13 29 -2 66 12
59 22 -3 5 1 6 8 4 8 -3 40 5 72 18 l58 24 -47 6 c-70 10 -155 7 -200 -7z"/>
<path d="M1042 1055 c-10 -21 -9 -27 2 -31 25 -9 51 1 50 19 -1 9 2 14 7 11 5
-3 9 -1 9 4 0 8 -31 21 -51 22 -3 0 -11 -11 -17 -25z"/>
<path d="M1913 1059 c-18 -12 -61 -31 -95 -43 -35 -12 -64 -24 -66 -26 -2 -3
7 -29 20 -58 19 -44 27 -52 45 -49 12 2 20 1 18 -3 -5 -9 44 -20 86 -20 40 0
69 32 69 76 0 40 -28 144 -38 144 -4 0 -22 -10 -39 -21z"/>
<path d="M1490 1050 l-35 -7 32 -2 c17 0 35 4 38 9 3 6 5 9 3 9 -2 -1 -19 -5
-38 -9z"/>
<path d="M1120 1030 c-6 -11 -8 -25 -5 -30 8 -13 52 -13 60 0 3 6 -1 10 -10
10 -12 0 -15 6 -10 20 9 27 -21 27 -35 0z"/>
<path d="M1250 1035 c-11 -13 -9 -15 13 -15 13 0 30 7 37 15 11 13 9 15 -13
15 -13 0 -30 -7 -37 -15z"/>
<path d="M1324 1009 c-19 -21 -19 -21 11 -17 18 2 30 9 30 17 0 23 -20 23 -41
0z"/>
<path d="M1613 968 c2 -7 10 -12 16 -10 6 1 11 -3 11 -10 0 -6 2 -9 5 -6 10 9
-7 38 -22 38 -8 0 -13 -6 -10 -12z"/>
<path d="M1688 948 c-3 -31 0 -34 37 -45 21 -7 41 -11 42 -9 6 5 -57 86 -66
86 -6 0 -11 -15 -13 -32z"/>
<path d="M1409 963 c-11 -3 -19 -20 -23 -55 -4 -28 -5 -52 -3 -55 3 -2 13 11
24 30 11 19 28 46 38 60 17 26 17 27 -1 26 -11 -1 -26 -3 -35 -6z"/>
</g>
</svg>
